<svg width="20" height="20" viewBox="0 0 20 20" fill="none" xmlns="http://www.w3.org/2000/svg">
<path fill-rule="evenodd" clip-rule="evenodd" d="M10 2C5.58167 2 2 5.58173 2 10C2 14.4183 5.58167 18 10 18C12.0289 18 13.8813 17.2448 15.2916 16H15V15H16V15.2917C16.0841 15.1964 16.1659 15.0992 16.2454 15H16V14H16.9298C16.9536 13.9589 16.9769 13.9176 17 13.876V13H17.4185C17.5493 12.6766 17.6597 12.3428 17.7479 12H17V11H17.9381C17.979 10.6724 18 10.3387 18 10H17V9H17.9382C17.9054 8.73602 17.8596 8.47626 17.8018 8.22128L19.7522 7.77872C19.9146 8.49405 20 9.23764 20 10C20 15.5229 15.5228 20 10 20C4.47717 20 0 15.5229 0 10C0 4.47714 4.47717 0 10 0C10.7623 0 11.506 0.0854797 12.2213 0.247803L11.7787 2.19821C11.2076 2.06863 10.6124 2 10 2ZM16 11V10H17V11H16ZM16 12V11H15V10H14V11H13V12H12V11H11V12H12V13H13V14H14V15H15V14H16V13H17V12H16ZM15 12V11H14V12H13V13H14V14H15V13H16V12H15ZM15 12V13H14V12H15ZM14.4451 1.04004L13.5748 0.607544L13.1177 1.46506L14 1.93555C13.1177 1.46506 13.1177 1.46512 13.1174 1.46552L13.1168 1.46658L13.1147 1.47046L13.1069 1.4852L13.077 1.5416L12.9652 1.75385C12.8694 1.93646 12.7333 2.19742 12.5715 2.51193C12.2487 3.1402 11.822 3.9859 11.4099 4.84979C11.0005 5.70834 10.5951 6.60666 10.3219 7.33331C10.1873 7.69131 10.0704 8.0448 10.0068 8.34692C9.97583 8.49435 9.94714 8.67618 9.95166 8.86249C9.95508 9.00415 9.97949 9.39365 10.293 9.70709C10.6064 10.0206 10.996 10.045 11.1376 10.0484C11.3239 10.0529 11.5057 10.0242 11.6531 9.99323C11.9552 9.92963 12.3087 9.81281 12.6667 9.67822C13.3934 9.40503 14.2917 8.99957 15.1503 8.59012C16.0142 8.1781 16.8599 7.7514 17.4882 7.4285C17.8027 7.26685 18.0636 7.13074 18.2462 7.03488C18.3375 6.98694 18.4093 6.94907 18.4585 6.92303L18.5149 6.89316L18.5297 6.88531L18.5334 6.88324L18.5345 6.88269C18.5349 6.88248 18.535 6.88245 18.0646 6.00003L18.535 6.88245L19.3926 6.42523L18.9601 5.55499C17.9891 3.60126 16.3988 2.01096 14.4451 1.04004ZM14.3505 3.42618L14.4048 3.32062C15.3076 3.91736 16.0828 4.69244 16.6794 5.59534L16.574 5.64969C15.9557 5.96741 15.129 6.38443 14.2893 6.78491C13.6021 7.1127 12.9204 7.42245 12.343 7.6571C12.5776 7.07965 12.8873 6.39804 13.2152 5.71075C13.6156 4.87103 14.0327 4.04437 14.3505 3.42618Z" fill="#6879BB"/>
</svg>
