<svg width="16" height="20" viewBox="0 0 16 20" fill="none" xmlns="http://www.w3.org/2000/svg">
<path fill-rule="evenodd" clip-rule="evenodd" d="M12.8372 6.00003C12.7452 3.86318 11.6241 2.6401 9 0.999995C8.62134 0.825465 8.4989 1.031 8.31445 1.3403C8.03821 1.80371 7.62305 2.5 6 2.5C3.25854 2.5 3.23511 3.81643 3.20483 5.51126C3.20203 5.67108 3.1991 5.83425 3.19385 6.00003C2.5 6.00003 2.5 7.24972 2.5 8.00003C2.5 8.66262 3 10 3.25476 10C3.63342 11.512 4.41003 12.6039 5.41931 13.2611L5.04126 14.7732C5.01917 14.8057 4.99939 14.8397 4.98218 14.8751C4.45508 14.8782 3.35583 15.0203 2.36023 15.5803C1.31702 16.1671 0.375 17.2294 0.375 19V19.625H15.625V19C15.625 17.1565 14.375 16.1137 13.2795 15.566C12.7266 15.2895 12.1803 15.1196 11.7766 15.0186C11.5735 14.9679 11.4031 14.9337 11.2817 14.9121C11.2209 14.9012 11.1722 14.8935 11.1377 14.8883C11.1204 14.8856 11.1064 14.8837 11.0963 14.8823L11.0841 14.8807L11.0801 14.8802L11.0786 14.88L11.0775 14.8798L11.0389 14.875H10.9841L10.5806 13.2612C11.59 12.604 12.3666 11.512 12.7452 10C13 10 13.5 8.66262 13.5 8.00003C13.5 7.27136 13.5 6.00003 12.8372 6.00003ZM9.16174 16.8908C9.63806 16.7897 10.0162 16.6208 10.307 16.3947C10.3612 16.3525 10.4116 16.3089 10.4586 16.2641C10.5035 16.2375 10.5452 16.2123 10.5833 16.1889C10.621 16.1658 10.6553 16.1443 10.6858 16.125H10.9553C10.9794 16.1286 11.0159 16.1344 11.062 16.1426C11.1594 16.16 11.3015 16.1884 11.4734 16.2313C11.8197 16.3179 12.2734 16.4605 12.7205 16.684C13.4492 17.0483 14.0775 17.5782 14.2943 18.375H1.6842C1.85474 17.527 2.37366 17.007 2.97302 16.6697C3.74402 16.2361 4.63086 16.125 5 16.125H5.31421C5.34473 16.1443 5.37903 16.1658 5.41675 16.1889C5.58008 16.2892 5.80994 16.4232 6.07605 16.5577C6.58093 16.8131 7.31946 17.125 8 17.125C8.38635 17.125 8.79138 17.0245 9.16174 16.8908ZM9.99597 15.0822C9.99695 15.0729 9.99768 15.0637 9.99829 15.0545L9.66382 13.7171C9.14331 13.9052 8.58337 14 8 14C7.41663 14 6.85657 13.9052 6.33606 13.7171L5.99597 15.0772C6.01855 15.0914 6.04358 15.1069 6.07068 15.1236C6.21277 15.2108 6.41199 15.3268 6.64014 15.4423C7.12402 15.6869 7.6355 15.875 8 15.875C8.3645 15.875 8.87598 15.6869 9.35986 15.4423C9.58801 15.3268 9.78723 15.2108 9.92932 15.1236C9.95325 15.1089 9.97559 15.095 9.99597 15.0822ZM9.07544 2.84176C8.85291 3.08413 8.56116 3.33047 8.17236 3.53366C7.57275 3.84704 6.85376 4 6 4C5.36121 4 5.04834 4.08706 4.91528 4.14639C4.83948 4.18017 4.83679 4.19418 4.83557 4.20022C4.83545 4.20105 4.83533 4.20172 4.83496 4.20227C4.80688 4.25836 4.7583 4.40417 4.73193 4.75451C4.71411 4.98855 4.71045 5.20715 4.70593 5.47439V5.47604V5.47753C4.70312 5.64361 4.69995 5.82852 4.69312 6.04757L4.64697 7.50003H4.00659C4.00024 7.66238 4 7.82733 4 7.99893V8.00003L4.00024 8.00271C4.00085 8.01113 4.00232 8.03158 4.0072 8.06573C4.01404 8.11477 4.02576 8.17761 4.04309 8.2521C4.06165 8.33193 4.08459 8.4161 4.1106 8.50003H4.42542L4.70984 9.63558C5.21521 11.6532 6.52368 12.5 8 12.5C9.47632 12.5 10.7848 11.6532 11.2902 9.63558L11.5746 8.50003H11.8894C11.9154 8.4161 11.9384 8.33193 11.9569 8.2521C11.9742 8.17761 11.986 8.11477 11.9928 8.06573C11.9993 8.02014 12 7.99893 12 7.99893C12 7.83041 11.9998 7.66482 11.9934 7.50003H11.4004L11.3386 6.06457C11.3052 5.28848 11.1019 4.75927 10.6949 4.24847C10.3547 3.82147 9.84595 3.37466 9.07544 2.84176ZM4.3092 8.99841C4.31323 9.00445 4.31348 9.00549 4.3103 9.00021L4.3092 8.99841ZM11.6897 9.00021C11.6865 9.00549 11.6868 9.00445 11.6908 8.99841L11.6897 9.00021Z" fill="#6879BB"/>
</svg>
